<svg width="21" height="19" viewBox="0 0 21 19" fill="none" xmlns="http://www.w3.org/2000/svg">
<path d="M20.1414 3.81836L13.0632 10.8965C12.274 11.6837 11.2048 12.1258 10.09 12.1258C8.9753 12.1258 7.90607 11.6837 7.11684 10.8965L0.0387089 3.81836C0.0269372 3.95121 3.05176e-05 4.07145 3.05176e-05 4.20346V14.2935C0.00136564 15.4081 0.444732 16.4766 1.23288 17.2648C2.02102 18.0529 3.08959 18.4963 4.2042 18.4976H15.9759C17.0905 18.4963 18.159 18.0529 18.9472 17.2648C19.7353 16.4766 20.1787 15.4081 20.18 14.2935V4.20346C20.18 4.07145 20.1531 3.95121 20.1414 3.81836Z" fill="white"/>
<path d="M11.8743 9.70826L19.5544 2.02725C19.1824 1.41035 18.6576 0.899723 18.0308 0.544633C17.404 0.189543 16.6963 0.00196811 15.9759 0H4.20418C3.48377 0.00196811 2.77603 0.189543 2.14921 0.544633C1.52239 0.899723 0.997646 1.41035 0.625595 2.02725L8.30577 9.70826C8.77964 10.1802 9.4212 10.4452 10.09 10.4452C10.7588 10.4452 11.4004 10.1802 11.8743 9.70826Z" fill="white"/>
</svg>
