<svg width="17" height="20" viewBox="0 0 17 20" fill="none" xmlns="http://www.w3.org/2000/svg">
<path d="M8.31752 0C6.11247 0.00242591 3.99842 0.879395 2.43914 2.43852C0.879858 3.99765 0.00267736 6.11161 3.05176e-05 8.31665C3.05176e-05 10.4583 1.65836 13.81 4.92919 18.2783C5.31857 18.8117 5.8284 19.2457 6.41719 19.5449C7.00597 19.8441 7.65708 20 8.31752 20C8.97795 20 9.62906 19.8441 10.2178 19.5449C10.8066 19.2457 11.3165 18.8117 11.7058 18.2783C14.9767 13.81 16.635 10.4583 16.635 8.31665C16.6324 6.11161 15.7552 3.99765 14.1959 2.43852C12.6366 0.879395 10.5226 0.00242591 8.31752 0ZM8.31752 11.6316C7.65825 11.6316 7.01378 11.4362 6.46562 11.0699C5.91746 10.7036 5.49021 10.183 5.23792 9.57393C4.98563 8.96484 4.91962 8.29462 5.04824 7.64802C5.17685 7.00142 5.49432 6.40748 5.9605 5.9413C6.42667 5.47513 7.02061 5.15766 7.66722 5.02904C8.31382 4.90042 8.98404 4.96643 9.59313 5.21873C10.2022 5.47102 10.7228 5.89826 11.0891 6.44642C11.4553 6.99459 11.6508 7.63905 11.6508 8.29832C11.6508 9.18237 11.2997 10.0302 10.6745 10.6553C10.0494 11.2805 9.20157 11.6316 8.31752 11.6316Z" fill="white"/>
</svg>
