<svg width="20" height="20" viewBox="0 0 20 20" fill="none" xmlns="http://www.w3.org/2000/svg">
<path d="M19.143 9.17072C18.922 9.17072 18.7099 9.0829 18.5536 8.92657C18.3973 8.77025 18.3095 8.55823 18.3095 8.33715C18.3077 6.56908 17.6046 4.87394 16.3544 3.62372C15.1041 2.37351 13.409 1.67037 11.6409 1.6686C11.4199 1.6686 11.2078 1.58078 11.0515 1.42446C10.8952 1.26813 10.8074 1.05611 10.8074 0.835035C10.8074 0.613959 10.8952 0.401938 11.0515 0.245613C11.2078 0.0892889 11.4199 0.0014668 11.6409 0.0014668C13.8509 0.00389382 15.9697 0.882895 17.5325 2.44561C19.0952 4.00833 19.9742 6.12713 19.9766 8.33715C19.9766 8.55823 19.8888 8.77025 19.7325 8.92657C19.5761 9.0829 19.3641 9.17072 19.143 9.17072ZM16.6423 8.33715C16.6423 7.01069 16.1154 5.73856 15.1775 4.80062C14.2395 3.86267 12.9674 3.33574 11.6409 3.33574C11.4199 3.33574 11.2078 3.42356 11.0515 3.57989C10.8952 3.73621 10.8074 3.94823 10.8074 4.16931C10.8074 4.39038 10.8952 4.60241 11.0515 4.75873C11.2078 4.91505 11.4199 5.00288 11.6409 5.00288C12.5252 5.00288 13.3733 5.35416 13.9986 5.97946C14.6239 6.60476 14.9752 7.45285 14.9752 8.33715C14.9752 8.55823 15.063 8.77025 15.2193 8.92657C15.3757 9.0829 15.5877 9.17072 15.8088 9.17072C16.0298 9.17072 16.2419 9.0829 16.3982 8.92657C16.5545 8.77025 16.6423 8.55823 16.6423 8.33715ZM18.462 18.4767L19.2206 17.6023C19.7034 17.1179 19.9745 16.4619 19.9745 15.778C19.9745 15.0941 19.7034 14.4381 19.2206 13.9537C19.1947 13.9279 17.1892 12.385 17.1892 12.385C16.7078 11.9268 16.0685 11.6716 15.4039 11.6726C14.7394 11.6735 14.1007 11.9304 13.6207 12.39L12.0319 13.7287C10.735 13.1919 9.55691 12.4043 8.5653 11.4109C7.57369 10.4176 6.78807 9.23818 6.25358 7.94037L7.58729 6.35659C8.04718 5.8766 8.3044 5.23784 8.30549 4.57309C8.30657 3.90834 8.05144 3.26874 7.59312 2.78725C7.59312 2.78725 6.04852 0.784187 6.02268 0.758347C5.54709 0.279669 4.90226 0.00732013 4.22753 0.000145415C3.55279 -0.0070293 2.90232 0.251546 2.41666 0.720003L1.45806 1.55357C-4.20521 8.12376 7.9899 20.2247 14.7768 20.0071C15.4622 20.0111 16.1414 19.8777 16.7743 19.6148C17.4072 19.352 17.9811 18.965 18.462 18.4767Z" fill="white"/>
</svg>
